<?xml version="1.0" encoding="utf-8"?>
<!-- Generator: Adobe Illustrator 18.0.0, SVG Export Plug-In . SVG Version: 6.00 Build 0)  -->
<!DOCTYPE svg PUBLIC "-//W3C//DTD SVG 1.1//EN" "http://www.w3.org/Graphics/SVG/1.1/DTD/svg11.dtd">
<svg version="1.1" id="Layer_1" xmlns="http://www.w3.org/2000/svg" xmlns:xlink="http://www.w3.org/1999/xlink" x="0px" y="0px"
	 viewBox="0 0 52.1 60" enable-background="new 0 0 52.1 60" xml:space="preserve">
<g>
	<g>
		<path d="M13.9,43.8c-0.5,0-0.8,0-1-0.1c0,0,0.1-0.1,0.2-0.1c2.1-1.3,2.4-3.3,2.8-5.6c0.2-0.9,0.3-1.8,0.6-2.7
			c0.6-2,2.4-3.3,4.6-3.3c0.6,0,1.2,0.1,1.8,0.3l0.8,0.3l-0.5-2.8l1.2,0.5l14.9-16.2l0,9.4L27.5,34l0.3,1.4l-2.2-0.9l0.2,0.9
			c0.4,1.9-0.3,4-1.6,5.2C21.9,42.7,16.7,43.8,13.9,43.8z"/>
		<path d="M38.8,15.3l0,7.9L27.4,33.5L27,33.8l0.1,0.5l0,0.2l-0.5-0.2l-1.7-0.7l0.4,1.8c0.3,1.7-0.3,3.6-1.5,4.7
			c-2,1.8-6.7,2.9-9.5,3.1c1.4-1.4,1.8-3.3,2.1-5.2c0.2-0.9,0.3-1.8,0.6-2.7c0.5-1.8,2.1-2.9,4.1-2.9c0.6,0,1.1,0.1,1.7,0.3l1.6,0.5
			L24,31.6l-0.2-1l0,0l0.6,0.3l0.5-0.5L38.8,15.3 M39.8,12.8L24.3,29.6l-1.7-0.7l0.5,2.8c-0.7-0.2-1.3-0.3-2-0.3
			c-2.4,0-4.4,1.3-5.1,3.6c-1,3.5-0.6,6.5-3.2,8.1c-1.2,0.7-0.5,1.1,1.1,1.1c2.8,0,8.2-1.1,10.6-3.3c1.5-1.4,2.2-3.7,1.8-5.7
			l2.2,0.9l-0.4-2l11.8-10.5L39.8,12.8L39.8,12.8z"/>
	</g>
	<g>
		<path d="M26,2.3l24,13.7l0.1,27.7l-24,13.9l-24-13.7L2,16.3L26,2.3 M26,0L0,15.1l0.1,30l26,14.9l26-15.1l-0.1-30L26,0L26,0z"/>
	</g>
</g>
</svg>
