<?xml version="1.0" encoding="utf-8"?>
<!-- Generator: Adobe Illustrator 18.0.0, SVG Export Plug-In . SVG Version: 6.00 Build 0)  -->
<!DOCTYPE svg PUBLIC "-//W3C//DTD SVG 1.1//EN" "http://www.w3.org/Graphics/SVG/1.1/DTD/svg11.dtd">
<svg version="1.1" id="Layer_1" xmlns="http://www.w3.org/2000/svg" xmlns:xlink="http://www.w3.org/1999/xlink" x="0px" y="0px"
	 viewBox="16.5 0 217.1 250" enable-background="new 16.5 0 217.1 250" xml:space="preserve">
<g>
	<path d="M176,60.5l-57.5,62.3l-6.3-2.6l1.9,10.4c-2.6-0.7-4.8-1.1-7.4-1.1c-8.9,0-16.3,4.8-18.9,13.4c-3.7,13-2.2,24.1-11.9,30
		c-4.5,2.6-1.9,4.1,4.1,4.1c10.4,0,30.4-4.1,39.3-12.2c5.6-5.2,8.2-13.7,6.7-21.1l8.2,3.3l-1.5-7.4l43.8-38.9L176,60.5z"/>
	<path d="M233.1,62.1L124.8,0L16.5,62.9l0.4,125L125.2,250l108.3-62.9L233.1,62.1z M125.2,240l-100-57.1l-0.4-115l100-58.3l100,57.1
		l0.4,115.4L125.2,240z"/>
</g>
</svg>
