<?xml version="1.0" encoding="utf-8"?>
<!-- Generator: Adobe Illustrator 18.0.0, SVG Export Plug-In . SVG Version: 6.00 Build 0)  -->
<!DOCTYPE svg PUBLIC "-//W3C//DTD SVG 1.1//EN" "http://www.w3.org/Graphics/SVG/1.1/DTD/svg11.dtd">
<svg version="1.1" id="Layer_1" xmlns="http://www.w3.org/2000/svg" xmlns:xlink="http://www.w3.org/1999/xlink" x="0px" y="0px"
	 viewBox="0 0 866.8 1000" enable-background="new 0 0 866.8 1000" xml:space="preserve">
<g>
	<g>
		<g>
			<path d="M434,38.4L833.6,268l0.4,461.6L433.2,960L33.6,730.4v-460L434,38.4 M434.4,0L0,250.4l0.4,500L432.8,1000l434-250.4
				l-0.4-500L434.4,0L434.4,0z"/>
		</g>
	</g>
</g>
<path d="M607.9,748.5H258.9c-8.6,0-15.7-7-15.7-15.7V268.5c0-8.6,7-15.7,15.7-15.7h348.9c8.6,0,15.7,7,15.7,15.7v464.3
	C623.5,741.5,616.5,748.5,607.9,748.5z M266.9,723.6h332.9V277.7H266.9V723.6z"/>
<path d="M540.5,369.1h-218c-2.2,0-4-1.8-4-4v-12c0-2.2,1.8-4,4-4h218c2.2,0,4,1.8,4,4v12C544.5,367.3,542.7,369.1,540.5,369.1z"/>
<path d="M540.5,463.1h-218c-2.2,0-4-1.8-4-4v-12c0-2.2,1.8-4,4-4h218c2.2,0,4,1.8,4,4v12C544.5,461.3,542.7,463.1,540.5,463.1z"/>
<path d="M540.5,557.1h-218c-2.2,0-4-1.8-4-4v-12c0-2.2,1.8-4,4-4h218c2.2,0,4,1.8,4,4v12C544.5,555.3,542.7,557.1,540.5,557.1z"/>
<path d="M540.5,651.1h-218c-2.2,0-4-1.8-4-4v-12c0-2.2,1.8-4,4-4h218c2.2,0,4,1.8,4,4v12C544.5,649.3,542.7,651.1,540.5,651.1z"/>
</svg>
