<?xml version="1.0" encoding="utf-8"?>
<!-- Generator: Adobe Illustrator 18.0.0, SVG Export Plug-In . SVG Version: 6.00 Build 0)  -->
<!DOCTYPE svg PUBLIC "-//W3C//DTD SVG 1.1//EN" "http://www.w3.org/Graphics/SVG/1.1/DTD/svg11.dtd">
<svg version="1.1" id="Layer_1" xmlns="http://www.w3.org/2000/svg" xmlns:xlink="http://www.w3.org/1999/xlink" x="0px" y="0px"
	 viewBox="32.9 -6.4 217 250" enable-background="new 32.9 -6.4 217 250" xml:space="preserve">
<g>
	<path d="M111.8,156.5c0,0-7.2,13.6-8.9,22.1l6.7,2.5c4.1-15.8,7.5-21.6,7.5-21.6c0.8-6.6,22.3,17.9,56.2-15
		c37.4-36.2-10.7-89.2-9.1-88.4c0,0-13.2,19.2-41.2,31.4C96.9,98.9,82.3,131.2,111.8,156.5z"/>
	<g>
		<g>
			<path d="M141.3,3.2l100,57.1l0.4,115.4l-100,57.9l-100-57.1l-0.4-115L141.3,3.2 M141.3-6.4L32.9,56.5l0.4,125l108.3,62.1
				l108.3-62.9l-0.4-125L141.3-6.4L141.3-6.4z"/>
		</g>
	</g>
</g>
</svg>
