<?xml version="1.0" encoding="utf-8"?>
<!-- Generator: Adobe Illustrator 18.0.0, SVG Export Plug-In . SVG Version: 6.00 Build 0)  -->
<!DOCTYPE svg PUBLIC "-//W3C//DTD SVG 1.1//EN" "http://www.w3.org/Graphics/SVG/1.1/DTD/svg11.dtd">
<svg version="1.1" id="Layer_1" xmlns="http://www.w3.org/2000/svg" xmlns:xlink="http://www.w3.org/1999/xlink" x="0px" y="0px"
	 viewBox="0 0 866.8 1000" enable-background="new 0 0 866.8 1000" xml:space="preserve">
<g>
	<g>
		<path d="M637.1,296.3c-54.4-54.4-126.7-84.4-203.7-84.4s-149.3,30-203.7,84.4c-54.4,54.4-84.4,126.7-84.4,203.7
			s30,149.3,84.4,203.7c54.4,54.4,126.7,84.4,203.7,84.4s149.3-30,203.7-84.4c54.4-54.4,84.4-126.7,84.4-203.7
			S691.5,350.7,637.1,296.3z M433.4,754.1c-140.1,0-254.1-114-254.1-254.1c0-140.1,114-254.1,254.1-254.1
			c140.1,0,254.1,114,254.1,254.1C687.5,640.1,573.5,754.1,433.4,754.1z"/>
		<path d="M356.7,389.5c4.6,24.3-16.3,45.3-40.6,40.6c-13.5-2.6-24.6-13.6-27.1-27.1c-4.6-24.3,16.3-45.3,40.6-40.6
			C343.1,365,354.2,376,356.7,389.5z"/>
		<path d="M488.8,389.5c4.6,24.3-16.3,45.3-40.6,40.6c-13.5-2.6-24.6-13.6-27.1-27.1c-4.6-24.3,16.3-45.3,40.6-40.6
			C475.2,365,486.3,376,488.8,389.5z"/>
		<path d="M282.7,512C301.3,651.8,487,648.7,504,510.4L282.7,512z"/>
	</g>
	<g>
		<g>
			<path d="M434,38.4L833.6,268l0.4,461.6L433.2,960L33.6,730.4v-460L434,38.4 M434.4,0L0,250.4l0.4,500L432.8,1000l434-250.4
				l-0.4-500L434.4,0L434.4,0z"/>
		</g>
	</g>
</g>
</svg>
