<?xml version="1.0" encoding="utf-8"?>
<!-- Generator: Adobe Illustrator 18.0.0, SVG Export Plug-In . SVG Version: 6.00 Build 0)  -->
<!DOCTYPE svg PUBLIC "-//W3C//DTD SVG 1.1//EN" "http://www.w3.org/Graphics/SVG/1.1/DTD/svg11.dtd">
<svg version="1.1" id="Layer_1" xmlns="http://www.w3.org/2000/svg" xmlns:xlink="http://www.w3.org/1999/xlink" x="0px" y="0px"
	 viewBox="0 0 267.1 307.7" enable-background="new 0 0 267.1 307.7" xml:space="preserve">
<g>
	<g>
		<polygon fill="none" stroke="#000000" stroke-width="10" stroke-miterlimit="10" points="133.8,301.9 5.3,228.4 5,80.3 133.3,5.8 
			261.8,79.3 262.1,227.3 		"/>
	</g>
</g>
<g>
	<path stroke="#000000" stroke-width="8" stroke-linecap="round" stroke-miterlimit="10" d="M201.7,138.1c0.7,3.5-2.3,6.4-5.8,5.8
		c-1.9-0.4-3.5-1.9-3.9-3.9c-0.7-3.5,2.3-6.4,5.8-5.8C199.7,134.6,201.3,136.2,201.7,138.1z"/>
	<path stroke="#000000" stroke-width="8" stroke-linecap="round" stroke-miterlimit="10" d="M75.1,138.1c0.7,3.5-2.3,6.4-5.8,5.8
		c-1.9-0.4-3.5-1.9-3.9-3.9c-0.7-3.5,2.3-6.4,5.8-5.8C73.2,134.6,74.7,136.2,75.1,138.1z"/>
	<path fill="none" stroke="#000000" stroke-width="10" stroke-linecap="round" stroke-miterlimit="10" d="M167.3,147.2
		c-1.6,40.8-64.4,40-62.9,0"/>
</g>
</svg>
