<?xml version="1.0" encoding="utf-8"?>
<!-- Generator: Adobe Illustrator 18.0.0, SVG Export Plug-In . SVG Version: 6.00 Build 0)  -->
<!DOCTYPE svg PUBLIC "-//W3C//DTD SVG 1.1//EN" "http://www.w3.org/Graphics/SVG/1.1/DTD/svg11.dtd">
<svg version="1.1" id="Layer_1" xmlns="http://www.w3.org/2000/svg" xmlns:xlink="http://www.w3.org/1999/xlink" x="0px" y="0px"
	 viewBox="14.7 -1.8 217.1 250" enable-background="new 14.7 -1.8 217.1 250" xml:space="preserve">
<g>
	<path d="M176.4,121c-0.5,0-1,0-1.4-0.1l-0.1,0c-3.2-0.7-5.6-3.1-6.3-6.3c-0.5-2.4,0.1-4.8,1.6-6.6c1.8-2.2,4.8-3.3,7.7-2.8l0.1,0
		c3.1,0.7,5.6,3.2,6.3,6.3c0.5,2.4-0.1,4.8-1.6,6.7C181.1,119.9,178.9,121,176.4,121z"/>
	<path d="M73.5,121c-0.5,0-1,0-1.4-0.1l-0.1,0c-3.2-0.7-5.6-3.1-6.3-6.3c-0.5-2.4,0.1-4.8,1.6-6.6c1.8-2.2,4.8-3.3,7.7-2.8l0.1,0
		c3.2,0.6,5.6,3.1,6.3,6.3c0.5,2.4-0.1,4.8-1.6,6.7C78.3,119.9,76,121,73.5,121z"/>
	<path d="M126.1,157.9c-0.4,0-0.9,0-1.3,0c-14.2-0.5-29.2-10.1-28.5-29.8c0.1-2.8,2.4-4.9,5.2-4.8c2.8,0.1,4.9,2.4,4.8,5.2
		c-0.5,12.9,9.1,19,18.9,19.4c10.3,0.4,21.7-5.6,22.3-19.8c0.1-2.8,2.4-4.9,5.2-4.8c2.8,0.1,4.9,2.4,4.8,5.2
		C156.7,148,141.3,157.9,126.1,157.9z"/>
	<g>
		<path d="M123,7.8l100,57.1l0.4,115.4l-100,57.9l-100-57.1L23,66.2L123,7.8 M123-1.8L14.7,61.2l0.4,125l108.3,62.1l108.3-62.9
			l-0.4-125L123-1.8L123-1.8z"/>
	</g>
</g>
</svg>
