<?xml version="1.0" encoding="utf-8"?>
<!-- Generator: Adobe Illustrator 18.0.0, SVG Export Plug-In . SVG Version: 6.00 Build 0)  -->
<!DOCTYPE svg PUBLIC "-//W3C//DTD SVG 1.1//EN" "http://www.w3.org/Graphics/SVG/1.1/DTD/svg11.dtd">
<svg version="1.1" id="Layer_1" xmlns="http://www.w3.org/2000/svg" xmlns:xlink="http://www.w3.org/1999/xlink" x="0px" y="0px"
	 viewBox="0 0 153 72" enable-background="new 0 0 153 72" xml:space="preserve">
<path d="M153,5.7c0-3.1-2.5-5.7-5.7-5.7H5.7C2.5,0,0,2.5,0,5.7v60.7C0,69.5,2.5,72,5.7,72h141.7c3.1,0,5.7-2.5,5.7-5.7V5.7z
	 M107,13.5c0,1.4-1.1,2.5-2.5,2.5h-6c-1.4,0-2.5-1.1-2.5-2.5v-4C96,8.1,97.1,7,98.5,7h6c1.4,0,2.5,1.1,2.5,2.5V13.5z M92,13.5
	c0,1.4-1.1,2.5-2.5,2.5h-4c-1.4,0-2.5-1.1-2.5-2.5v-4C83,8.1,84.1,7,85.5,7h4C90.9,7,92,8.1,92,9.5V13.5z M93,37.5
	c0,1.4-1.1,2.5-2.5,2.5h-4c-1.4,0-2.5-1.1-2.5-2.5v-4c0-1.4,1.1-2.5,2.5-2.5h4c1.4,0,2.5,1.1,2.5,2.5V37.5z M90,25.5
	c0,1.4-1.1,2.5-2.5,2.5h-4c-1.4,0-2.5-1.1-2.5-2.5v-4c0-1.4,1.1-2.5,2.5-2.5h4c1.4,0,2.5,1.1,2.5,2.5V25.5z M82,50.5
	c0,1.4-1.1,2.5-2.5,2.5h-4c-1.4,0-2.5-1.1-2.5-2.5v-4c0-1.4,1.1-2.5,2.5-2.5h4c1.4,0,2.5,1.1,2.5,2.5V50.5z M80,37.5
	c0,1.4-1.1,2.5-2.5,2.5h-4c-1.4,0-2.5-1.1-2.5-2.5v-4c0-1.4,1.1-2.5,2.5-2.5h4c1.4,0,2.5,1.1,2.5,2.5V37.5z M79,13.5
	c0,1.4-1.1,2.5-2.5,2.5h-4c-1.4,0-2.5-1.1-2.5-2.5v-4C70,8.1,71.1,7,72.5,7h4C77.9,7,79,8.1,79,9.5V13.5z M77,25.5
	c0,1.4-1.1,2.5-2.5,2.5h-4c-1.4,0-2.5-1.1-2.5-2.5v-4c0-1.4,1.1-2.5,2.5-2.5h4c1.4,0,2.5,1.1,2.5,2.5V25.5z M69,50.5
	c0,1.4-1.1,2.5-2.5,2.5h-4c-1.4,0-2.5-1.1-2.5-2.5v-4c0-1.4,1.1-2.5,2.5-2.5h4c1.4,0,2.5,1.1,2.5,2.5V50.5z M67,37.5
	c0,1.4-1.1,2.5-2.5,2.5h-4c-1.4,0-2.5-1.1-2.5-2.5v-4c0-1.4,1.1-2.5,2.5-2.5h4c1.4,0,2.5,1.1,2.5,2.5V37.5z M66,13.5
	c0,1.4-1.1,2.5-2.5,2.5h-4c-1.4,0-2.5-1.1-2.5-2.5v-4C57,8.1,58.1,7,59.5,7h4C64.9,7,66,8.1,66,9.5V13.5z M65,25.5
	c0,1.4-1.1,2.5-2.5,2.5h-4c-1.4,0-2.5-1.1-2.5-2.5v-4c0-1.4,1.1-2.5,2.5-2.5h4c1.4,0,2.5,1.1,2.5,2.5V25.5z M56,50.5
	c0,1.4-1.1,2.5-2.5,2.5h-4c-1.4,0-2.5-1.1-2.5-2.5v-4c0-1.4,1.1-2.5,2.5-2.5h4c1.4,0,2.5,1.1,2.5,2.5V50.5z M54,37.5
	c0,1.4-1.1,2.5-2.5,2.5h-4c-1.4,0-2.5-1.1-2.5-2.5v-4c0-1.4,1.1-2.5,2.5-2.5h4c1.4,0,2.5,1.1,2.5,2.5V37.5z M54,13.5
	c0,1.4-1.1,2.5-2.5,2.5h-4c-1.4,0-2.5-1.1-2.5-2.5v-4C45,8.1,46.1,7,47.5,7h4C52.9,7,54,8.1,54,9.5V13.5z M53,25.5
	c0,1.4-1.1,2.5-2.5,2.5h-4c-1.4,0-2.5-1.1-2.5-2.5v-4c0-1.4,1.1-2.5,2.5-2.5h4c1.4,0,2.5,1.1,2.5,2.5V25.5z M43,50.5
	c0,1.4-1.1,2.5-2.5,2.5h-4c-1.4,0-2.5-1.1-2.5-2.5v-4c0-1.4,1.1-2.5,2.5-2.5h4c1.4,0,2.5,1.1,2.5,2.5V50.5z M41,37.5
	c0,1.4-1.1,2.5-2.5,2.5h-4c-1.4,0-2.5-1.1-2.5-2.5v-4c0-1.4,1.1-2.5,2.5-2.5h4c1.4,0,2.5,1.1,2.5,2.5V37.5z M41,13.5
	c0,1.4-1.1,2.5-2.5,2.5h-4c-1.4,0-2.5-1.1-2.5-2.5v-4C32,8.1,33.1,7,34.5,7h4C39.9,7,41,8.1,41,9.5V13.5z M41,25.5
	c0,1.4-1.1,2.5-2.5,2.5h-4c-1.4,0-2.5-1.1-2.5-2.5v-4c0-1.4,1.1-2.5,2.5-2.5h4c1.4,0,2.5,1.1,2.5,2.5V25.5z M30,50.5
	c0,1.4-1.1,2.5-2.5,2.5h-4c-1.4,0-2.5-1.1-2.5-2.5v-4c0-1.4,1.1-2.5,2.5-2.5h4c1.4,0,2.5,1.1,2.5,2.5V50.5z M28,37.5
	c0,1.4-1.1,2.5-2.5,2.5h-4c-1.4,0-2.5-1.1-2.5-2.5v-4c0-1.4,1.1-2.5,2.5-2.5h4c1.4,0,2.5,1.1,2.5,2.5V37.5z M28,25.5
	c0,1.4-1.1,2.5-2.5,2.5h-4c-1.4,0-2.5-1.1-2.5-2.5v-4c0-1.4,1.1-2.5,2.5-2.5h4c1.4,0,2.5,1.1,2.5,2.5V25.5z M28,13.5
	c0,1.4-1.1,2.5-2.5,2.5h-4c-1.4,0-2.5-1.1-2.5-2.5v-4C19,8.1,20.1,7,21.5,7h4C26.9,7,28,8.1,28,9.5V13.5z M15,13.5
	c0,1.4-1.1,2.5-2.5,2.5h-4C7.1,16,6,14.9,6,13.5v-4C6,8.1,7.1,7,8.5,7h4C13.9,7,15,8.1,15,9.5V13.5z M16,25.5c0,1.4-1.1,2.5-2.5,2.5
	h-5C7.1,28,6,26.9,6,25.5v-4C6,20.1,7.1,19,8.5,19h5c1.4,0,2.5,1.1,2.5,2.5V25.5z M15,37.5c0,1.4-1.1,2.5-2.5,2.5h-4
	C7.1,40,6,38.9,6,37.5v-4C6,32.1,7.1,31,8.5,31h4c1.4,0,2.5,1.1,2.5,2.5V37.5z M15,62.5c0,1.4-1.1,2.5-2.5,2.5h-4
	C7.1,65,6,63.9,6,62.5v-4C6,57.1,7.1,56,8.5,56h4c1.4,0,2.5,1.1,2.5,2.5V62.5z M18,50.5c0,1.4-1.1,2.5-2.5,2.5h-7
	C7.1,53,6,51.9,6,50.5v-4C6,45.1,7.1,44,8.5,44h7c1.4,0,2.5,1.1,2.5,2.5V50.5z M93,62.5c0,1.4-1.1,2.5-2.5,2.5h-69
	c-1.4,0-2.5-1.1-2.5-2.5v-4c0-1.4,1.1-2.5,2.5-2.5h69c1.4,0,2.5,1.1,2.5,2.5V62.5z M106,62.5c0,1.4-1.1,2.5-2.5,2.5h-4
	c-1.4,0-2.5-1.1-2.5-2.5v-4c0-1.4,1.1-2.5,2.5-2.5h4c1.4,0,2.5,1.1,2.5,2.5V62.5z M107,50.5c0,1.4-1.1,2.5-2.5,2.5h-15
	c-1.4,0-2.5-1.1-2.5-2.5v-4c0-1.4,1.1-2.5,2.5-2.5h15c1.4,0,2.5,1.1,2.5,2.5V50.5z M107,38.8c0,1.2-1,2.2-2.2,2.2h-5.2
	c-1.4,0-2.6-1.2-2.6-2.6v-9.5c0-0.5-0.4-0.9-0.9-0.9h-1.2c-0.8,0-1.9-0.3-1.9-2.7v-5.5c0-1,0.8-1.9,1.9-1.9h4.3c0.4,0,0.8,0,1.2,0
	h6.1c0.3,0,0.6,0.3,0.6,0.6V38.8z M121,62.5c0,1.4-1.1,2.5-2.5,2.5h-4c-1.4,0-2.5-1.1-2.5-2.5v-4c0-1.4,1.1-2.5,2.5-2.5h4
	c1.4,0,2.5,1.1,2.5,2.5V62.5z M121,33.5c0,1.4-1.1,2.5-2.5,2.5h-3c-1.4,0-2.5-1.1-2.5-2.5v-3c0-1.4,1.1-2.5,2.5-2.5h3
	c1.4,0,2.5,1.1,2.5,2.5V33.5z M121,22.5c0,1.4-1.1,2.5-2.5,2.5h-3c-1.4,0-2.5-1.1-2.5-2.5v-3c0-1.4,1.1-2.5,2.5-2.5h3
	c1.4,0,2.5,1.1,2.5,2.5V22.5z M121,10.5c0,1.4-1.1,2.5-2.5,2.5h-4c-1.4,0-2.5-1.1-2.5-2.5v-1c0-1.4,1.1-2.5,2.5-2.5h4
	c1.4,0,2.5,1.1,2.5,2.5V10.5z M133,62.5c0,1.4-1.1,2.5-2.5,2.5h-4c-1.4,0-2.5-1.1-2.5-2.5v-4c0-1.4,1.1-2.5,2.5-2.5h4
	c1.4,0,2.5,1.1,2.5,2.5V62.5z M133,50.5c0,1.4-1.1,2.5-2.5,2.5h-4c-1.4,0-2.5-1.1-2.5-2.5v-4c0-1.4,1.1-2.5,2.5-2.5h4
	c1.4,0,2.5,1.1,2.5,2.5V50.5z M133,33.5c0,1.4-1.1,2.5-2.5,2.5h-3c-1.4,0-2.5-1.1-2.5-2.5v-3c0-1.4,1.1-2.5,2.5-2.5h3
	c1.4,0,2.5,1.1,2.5,2.5V33.5z M133,22.5c0,1.4-1.1,2.5-2.5,2.5h-3c-1.4,0-2.5-1.1-2.5-2.5v-3c0-1.4,1.1-2.5,2.5-2.5h3
	c1.4,0,2.5,1.1,2.5,2.5V22.5z M133,10.5c0,1.4-1.1,2.5-2.5,2.5h-4c-1.4,0-2.5-1.1-2.5-2.5v-1c0-1.4,1.1-2.5,2.5-2.5h4
	c1.4,0,2.5,1.1,2.5,2.5V10.5z M145,62.5c0,1.4-1.1,2.5-2.5,2.5h-4c-1.4,0-2.5-1.1-2.5-2.5v-4c0-1.4,1.1-2.5,2.5-2.5h4
	c1.4,0,2.5,1.1,2.5,2.5V62.5z M145,33.5c0,1.4-1.1,2.5-2.5,2.5h-3c-1.4,0-2.5-1.1-2.5-2.5v-3c0-1.4,1.1-2.5,2.5-2.5h3
	c1.4,0,2.5,1.1,2.5,2.5V33.5z M145,22.5c0,1.4-1.1,2.5-2.5,2.5h-3c-1.4,0-2.5-1.1-2.5-2.5v-3c0-1.4,1.1-2.5,2.5-2.5h3
	c1.4,0,2.5,1.1,2.5,2.5V22.5z M145,10.5c0,1.4-1.1,2.5-2.5,2.5h-4c-1.4,0-2.5-1.1-2.5-2.5v-1c0-1.4,1.1-2.5,2.5-2.5h4
	c1.4,0,2.5,1.1,2.5,2.5V10.5z"/>
</svg>
