<?xml version="1.0" encoding="utf-8"?>
<!-- Generator: Adobe Illustrator 18.0.0, SVG Export Plug-In . SVG Version: 6.00 Build 0)  -->
<!DOCTYPE svg PUBLIC "-//W3C//DTD SVG 1.1//EN" "http://www.w3.org/Graphics/SVG/1.1/DTD/svg11.dtd">
<svg version="1.1" id="Layer_1" xmlns="http://www.w3.org/2000/svg" xmlns:xlink="http://www.w3.org/1999/xlink" x="0px" y="0px"
	 viewBox="0 0 52.1 60" enable-background="new 0 0 52.1 60" xml:space="preserve">
<g>
	<g>
		<path d="M26,2.3l24,13.7l0.1,27.7l-24,13.9l-24-13.7L2,16.3L26,2.3 M26,0L0,15.1l0.1,30l26,14.9l26-15.1l-0.1-30L26,0L26,0z"/>
	</g>
</g>
<g>
	<circle cx="32.4" cy="26.7" r="2"/>
	<circle cx="23.8" cy="22.6" r="3.1"/>
	<path d="M41.1,24.3c-0.3-2.7-1.8-7.6-8.1-10.7s-12.5-0.5-15.1,1.2c-2.7,1.7-3.6,2.5-4.4,4.8c-0.7,2.1-0.7,4.4-0.7,4.8
		c0,0.5,0.4,4.5,0.4,4.5l-2,4c0,0-0.7,1.4,0.2,2.1s1.4,1.7,1.7,2.5c0.3,0.8,0.8,2.5,0.8,2.9s0.4,2.9,0.4,2.9s0.2,1,2.8,1.1
		s3.1-0.4,3.1-0.4l4.4,5.7c1.5-1.3,9.8-5.6,11.8-7.6l-1-2.7c-0.1-0.2-0.1-0.3,0-0.5l1-2.7c0.1-0.3,0.3-0.6,0.5-0.8
		c0.7-0.7,2.3-2.3,3.4-4.6C41.6,28.1,41.3,27,41.1,24.3z M25.8,26.9l0,1.5l-1.2,0.3l-0.7-1.4c-0.4,0-0.9,0-1.3-0.2l-1,1.2l-1.1-0.6
		l0.3-1.5c-0.3-0.3-0.6-0.6-0.8-0.9l-1.6,0.3l-0.5-1.2l1.3-1c0-0.2-0.1-0.4-0.1-0.7c0-0.2,0-0.4,0-0.5l-1.4-0.8l0.4-1.2l1.6,0.1
		c0.2-0.4,0.4-0.7,0.7-1l-0.5-1.5l1.1-0.7l1.1,1c0.4-0.2,0.8-0.3,1.2-0.3l0.5-1.4l1.3,0.2l0.2,1.5c0.4,0.1,0.8,0.3,1.2,0.6l1.3-0.7
		l0.9,0.9l-0.8,1.2c0.2,0.4,0.4,0.8,0.6,1.3l1.4,0.3l0.1,1.3l-1.4,0.4c-0.1,0.5-0.2,0.9-0.4,1.3l0.9,1.1l-0.8,1l-1.4-0.6
		C26.6,26.4,26.2,26.7,25.8,26.9z M35.7,26.4c0,0.5,0,0.9-0.2,1.4l1,1.2l-0.8,1l-1.4-0.6c-0.4,0.3-0.8,0.4-1.3,0.5l-0.5,1.4
		l-1.3-0.2l-0.2-1.5c-0.2-0.1-0.4-0.2-0.6-0.4c-0.2-0.1-0.4-0.3-0.5-0.5l-1.5,0.2L28,27.9l1.2-0.9c0-0.5,0-0.9,0.2-1.4l-0.9-1.2
		l0.8-1l1.4,0.6c0.4-0.3,0.8-0.5,1.3-0.5l0.6-1.4l1.3,0.2l0.2,1.5c0.2,0.1,0.4,0.2,0.6,0.4c0.2,0.1,0.4,0.3,0.5,0.5l1.5-0.2l0.5,1.2
		L35.7,26.4z"/>
</g>
</svg>
