<?xml version="1.0" encoding="utf-8"?>
<!-- Generator: Adobe Illustrator 18.0.0, SVG Export Plug-In . SVG Version: 6.00 Build 0)  -->
<!DOCTYPE svg PUBLIC "-//W3C//DTD SVG 1.1//EN" "http://www.w3.org/Graphics/SVG/1.1/DTD/svg11.dtd">
<svg version="1.1" id="Layer_1" xmlns="http://www.w3.org/2000/svg" xmlns:xlink="http://www.w3.org/1999/xlink" x="0px" y="0px"
	 viewBox="16.6 0 216.7 250" enable-background="new 16.6 0 216.7 250" xml:space="preserve">
<g>
	<g>
		<g>
			<path d="M125.1,9.6L225,67l0.1,115.4L124.9,240L25,182.6L25,67.6L125.1,9.6 M125.2,0L16.6,62.6l0.1,125L124.8,250l108.5-62.6
				l-0.1-125L125.2,0L125.2,0z"/>
		</g>
	</g>
	<g>
		<circle cx="151.5" cy="111.3" r="8.3"/>
		<circle cx="115.6" cy="94.2" r="12.9"/>
		<path d="M187.7,101.3c-1.3-11.3-7.5-31.7-33.7-44.6s-52.1-2.1-62.9,5c-11.3,7.1-15,10.4-18.3,20c-2.9,8.8-2.9,18.3-2.9,20
			c0,2.1,1.7,18.7,1.7,18.7l-8.3,16.7c0,0-2.9,5.8,0.8,8.7c3.7,2.9,5.8,7.1,7.1,10.4s3.3,10.4,3.3,12.1s1.7,12.1,1.7,12.1
			s0.8,4.2,11.7,4.6c10.8,0.4,12.9-1.7,12.9-1.7l18.3,23.8c6.3-5.4,40.8-23.3,49.2-31.7l-4.2-11.3c-0.4-0.8-0.4-1.3,0-2.1l4.2-11.3
			c0.4-1.3,1.2-2.5,2.1-3.3c2.9-2.9,9.6-9.6,14.2-19.2C189.8,117.1,188.5,112.5,187.7,101.3z M124,112.1v6.3l-5,1.2l-2.9-5.8
			c-1.7,0-3.8,0-5.4-0.8l-4.2,5l-4.6-2.5l1.3-6.3c-1.3-1.2-2.5-2.5-3.3-3.8l-6.7,1.3l-2.1-5l5.4-4.2c0-0.8-0.4-1.7-0.4-2.9
			c0-0.8,0-1.7,0-2.1l-5.8-3.3l1.7-5l6.7,0.4c0.8-1.7,1.7-2.9,2.9-4.2l-2.1-6.2l4.6-2.9l4.6,4.2c1.7-0.8,3.3-1.2,5-1.2l2.1-5.8
			l5.4,0.8l0.8,6.3c1.7,0.4,3.3,1.3,5,2.5l5.4-2.9l3.8,3.7l-3.3,5c0.8,1.7,1.7,3.3,2.5,5.4l5.8,1.2l0.4,5.4l-5.8,1.7
			c-0.4,2.1-0.8,3.8-1.7,5.4l3.8,4.6l-3.3,4.2l-5.8-2.5C127.3,110,125.6,111.3,124,112.1z M165.2,110c0,2.1,0,3.8-0.8,5.8l4.2,5
			l-3.3,4.2l-5.8-2.5c-1.7,1.3-3.3,1.7-5.4,2.1l-2.1,5.8l-5.4-0.8l-0.8-6.3c-0.8-0.4-1.7-0.8-2.5-1.7c-0.8-0.4-1.7-1.2-2.1-2.1
			l-6.3,0.8l-1.7-4.2l5-3.8c0-2.1,0-3.7,0.8-5.8l-3.8-5l3.3-4.2l5.8,2.5c1.7-1.2,3.3-2.1,5.4-2.1l2.5-5.8l5.4,0.8l0.8,6.3
			c0.8,0.4,1.7,0.8,2.5,1.7c0.8,0.4,1.7,1.2,2.1,2.1l6.2-0.8l2.1,5L165.2,110z"/>
	</g>
</g>
</svg>
