<?xml version="1.0" encoding="utf-8"?>
<!-- Generator: Adobe Illustrator 18.0.0, SVG Export Plug-In . SVG Version: 6.00 Build 0)  -->
<!DOCTYPE svg PUBLIC "-//W3C//DTD SVG 1.1//EN" "http://www.w3.org/Graphics/SVG/1.1/DTD/svg11.dtd">
<svg version="1.1" id="Layer_1" xmlns="http://www.w3.org/2000/svg" xmlns:xlink="http://www.w3.org/1999/xlink" x="0px" y="0px"
	 viewBox="0 0 52.1 60" enable-background="new 0 0 52.1 60" xml:space="preserve">
<g>
	<g>
		<g>
			<g>
				<path d="M26,2.3l24,13.7l0.1,27.7l-24,13.9l-24-13.7L2,16.3L26,2.3 M26,0L0,15.1l0.1,30l26,14.9l26-15.1l-0.1-30L26,0L26,0z"/>
			</g>
		</g>
	</g>
	<g>
		<g>
			<defs>
				<rect id="SVGID_1_" x="9.9" y="12.6" width="29.4" height="31.9"/>
			</defs>
			<clipPath id="SVGID_2_">
				<use xlink:href="#SVGID_1_"  overflow="visible"/>
			</clipPath>
			<path clip-path="url(#SVGID_2_)" d="M18,17.1v19.1c0,0.2-0.2,0.3-0.3,0.2c-1.3-0.4-3-0.4-4.7,0.5c-2.7,1.4-3.4,3.9-2.4,5.5
				c1,1.6,3.8,2.3,6.5,0.9c1.9-1,2.9-2.6,2.8-4V23.7c0-0.1,0.1-0.2,0.2-0.2l15.2-3c0.2,0,0.3,0.1,0.3,0.2v13.5
				c0,0.2-0.2,0.3-0.3,0.2c-1.3-0.4-3-0.4-4.7,0.5c-2.7,1.4-3.4,3.9-2.4,5.5c1,1.6,3.8,2.3,6.5,0.9c1.9-1,2.9-2.6,2.8-4V13.4
				c0-0.4-0.4-0.7-0.8-0.6l-18.3,3.7C18.2,16.5,18,16.8,18,17.1z M18,16.5"/>
		</g>
	</g>
</g>
</svg>
