<?xml version="1.0" encoding="utf-8"?>
<!-- Generator: Adobe Illustrator 18.0.0, SVG Export Plug-In . SVG Version: 6.00 Build 0)  -->
<!DOCTYPE svg PUBLIC "-//W3C//DTD SVG 1.1//EN" "http://www.w3.org/Graphics/SVG/1.1/DTD/svg11.dtd">
<svg version="1.1" id="Layer_1" xmlns="http://www.w3.org/2000/svg" xmlns:xlink="http://www.w3.org/1999/xlink" x="0px" y="0px"
	 viewBox="24.8 -13 874.2 511.2" enable-background="new 24.8 -13 874.2 511.2" xml:space="preserve">
<g>
	<g>
		
			<polyline fill="none" stroke="#000000" stroke-width="40" stroke-linecap="round" stroke-linejoin="round" stroke-miterlimit="10" points="
			466.4,7 229.5,243.9 463.8,478.3 		"/>
		
			<polyline fill="none" stroke="#000000" stroke-width="40" stroke-linecap="round" stroke-linejoin="round" stroke-miterlimit="10" points="
			281.6,7 44.8,243.9 279.1,478.3 		"/>
	</g>
	<g>
		<path d="M829.7,360l-20.3,24L767,350.5c-9.8,5.9-20,10.3-30.8,13.2S714,368,701.9,368c-18.1,0-34.7-3.2-49.8-9.7
			c-15.1-6.4-28.1-15.5-39.1-27.2s-19.4-25.8-25.5-42.2s-9.1-34.6-9.1-54.5c0-20,3.1-38.3,9.3-54.7c6.2-16.4,14.7-30.4,25.7-42.1
			c10.9-11.7,24-20.6,39.1-27c15.1-6.3,31.6-9.5,49.4-9.5c17.8,0,34.3,3.2,49.4,9.6c15.1,6.4,28.1,15.4,39.1,27.1
			c10.9,11.7,19.5,25.7,25.6,42.1c6.1,16.4,9.2,34.6,9.2,54.5c0,19.4-2.8,37.1-8.3,53c-5.5,16-13.9,30.2-25.1,42.7L829.7,360z
			 M766.2,310.2c15.9-18.6,23.8-43.9,23.8-75.8c0-16.4-2.2-31.1-6.6-43.9c-4.4-12.9-10.5-23.8-18.4-32.6
			c-7.8-8.9-17.1-15.6-27.7-20.2c-10.7-4.6-22.3-6.9-34.8-6.9c-12.9,0-24.7,2.3-35.5,7c-10.8,4.7-20.2,11.5-28,20.4
			c-7.9,8.9-14,19.8-18.5,32.6c-4.4,12.8-6.6,27.4-6.6,43.7c0,16.4,2.2,31.1,6.5,43.9c4.4,12.9,10.4,23.8,18.3,32.7
			c7.8,8.9,17.1,15.8,27.8,20.5c10.7,4.8,22.5,7.1,35.3,7.1c6.9,0,13.5-0.7,19.9-2.2c6.4-1.5,12.7-3.7,18.9-6.5l-25.8-20.3l20.3-24
			L766.2,310.2z"/>
	</g>
</g>
</svg>
