<?xml version="1.0" encoding="utf-8"?>
<!-- Generator: Adobe Illustrator 18.0.0, SVG Export Plug-In . SVG Version: 6.00 Build 0)  -->
<!DOCTYPE svg PUBLIC "-//W3C//DTD SVG 1.1//EN" "http://www.w3.org/Graphics/SVG/1.1/DTD/svg11.dtd">
<svg version="1.1" id="Layer_1" xmlns="http://www.w3.org/2000/svg" xmlns:xlink="http://www.w3.org/1999/xlink" x="0px" y="0px"
	 viewBox="0 0 250 250" enable-background="new 0 0 250 250" xml:space="preserve">
<path d="M125.1,249.3c-44.2,0-85.3-23.7-107.3-61.9C-16.3,128.3,4,52.4,63.1,18.3C77.8,9.9,93.6,4.6,110.1,2.6l13.8-1.7l-10.8,8.7
	c-41.4,33.5-52.2,91.3-25.5,137.4c19.2,33.2,55,53.9,93.4,53.9c13.2,0,26.1-2.4,38.4-7.1l13.1-5L224,200
	c-10.1,13.4-22.6,24.4-37.1,32.8C168.1,243.6,146.7,249.3,125.1,249.3z"/>
</svg>
