<?xml version="1.0" encoding="utf-8"?>
<!-- Generator: Adobe Illustrator 18.0.0, SVG Export Plug-In . SVG Version: 6.00 Build 0)  -->
<!DOCTYPE svg PUBLIC "-//W3C//DTD SVG 1.1//EN" "http://www.w3.org/Graphics/SVG/1.1/DTD/svg11.dtd">
<svg version="1.1" id="Layer_1" xmlns="http://www.w3.org/2000/svg" xmlns:xlink="http://www.w3.org/1999/xlink" x="0px" y="0px"
	 viewBox="0 0 52.1 60" enable-background="new 0 0 52.1 60" xml:space="preserve">
<g>
	<g>
		<g>
			<g>
				<path d="M26,2.3l24,13.7l0.1,27.7l-24,13.9l-24-13.7L2,16.3L26,2.3 M26,0L0,15.1l0.1,30l26,14.9l26-15.1l-0.1-30L26,0L26,0z"/>
			</g>
		</g>
	</g>
</g>
<g>
	<path d="M18.1,19.7c4.8,0,7.9,0.9,7.9,10.5c0,9-2.9,10.2-7.9,10.2c-5,0-7.9-0.9-7.9-10.2C10.2,20.6,13.4,19.7,18.1,19.7z
		 M18.1,38.3c4.4,0,5.8-1.2,5.8-8.1c0-8.4-2-8.4-5.8-8.4c-3.7,0-5.9,0.1-5.9,8.4C12.3,37.3,13.7,38.3,18.1,38.3z"/>
	<path d="M35.1,19.6c1.5,0,4.9,0.3,6.8,0.7v1.6c0,0-4.2-0.3-6.8-0.3c-3.5,0-4.8,1.6-4.8,8.4c0,4.6,1,8.3,4.8,8.3
		c2.9,0,6.8-0.2,6.8-0.2v1.6c-2,0.4-5.4,0.6-6.8,0.6c-5.2,0-6.8-4.4-6.8-10.5C28.2,23.4,29.5,19.6,35.1,19.6z"/>
</g>
</svg>
