<?xml version="1.0" encoding="utf-8"?>
<!-- Generator: Adobe Illustrator 18.0.0, SVG Export Plug-In . SVG Version: 6.00 Build 0)  -->
<!DOCTYPE svg PUBLIC "-//W3C//DTD SVG 1.1//EN" "http://www.w3.org/Graphics/SVG/1.1/DTD/svg11.dtd">
<svg version="1.1" id="Layer_1" xmlns="http://www.w3.org/2000/svg" xmlns:xlink="http://www.w3.org/1999/xlink" x="0px" y="0px"
	 viewBox="16.5 0 217.1 250" enable-background="new 16.5 0 217.1 250" xml:space="preserve">
<g>
	<g>
		<g>
			<path d="M124.8,9.6l100,57.1l0.4,115.4l-100,57.9l-100-57.1l-0.4-115L124.8,9.6 M124.8,0L16.5,62.9l0.4,125L125.2,250l108.3-62.9
				l-0.4-125L124.8,0L124.8,0z"/>
		</g>
	</g>
	<g>
		<path d="M182.3,83.8h-27.9c-0.8,0-1.7,0.4-2.1-0.4l-6.3-9.2c-1.3-1.7-3.3-2.9-5.8-2.9h-9.6H119h-9.6c-2.1,0-4.2,1.7-5.8,3.3
			l-6.3,8.3c-0.4,0.8-1.2,0.8-2.1,0.8H67.7c-3.7,0-5.8,4.2-5.8,7.9v70.4c0,3.8,2.1,5,5.8,5h113.7c3.8,0,9.6-0.8,9.6-4.6V91.7
			C191.5,87.9,185.6,83.8,182.3,83.8z M124.8,156.2c-16.2,0-29.5-13.3-29.5-29.5s13.3-29.5,29.5-29.5s29.5,13.3,29.5,29.5
			S141.4,156.2,124.8,156.2z M142,127.1c0,9.2-7.5,17.2-17.2,17.2s-17.2-7.5-17.2-17.2s7.5-17.2,17.2-17.2S142,117.9,142,127.1z"/>
	</g>
</g>
</svg>
