<?xml version="1.0" encoding="utf-8"?>
<!-- Generator: Adobe Illustrator 18.0.0, SVG Export Plug-In . SVG Version: 6.00 Build 0)  -->
<!DOCTYPE svg PUBLIC "-//W3C//DTD SVG 1.1//EN" "http://www.w3.org/Graphics/SVG/1.1/DTD/svg11.dtd">
<svg version="1.1" id="Layer_1" xmlns="http://www.w3.org/2000/svg" xmlns:xlink="http://www.w3.org/1999/xlink" x="0px" y="0px"
	 viewBox="-140 -2.2 622.4 492.1" enable-background="new -140 -2.2 622.4 492.1" xml:space="preserve">
<g>
	
		<polyline fill="none" stroke="#000000" stroke-width="35" stroke-linecap="round" stroke-linejoin="round" stroke-miterlimit="10" points="
		237.6,472.4 464.9,245.1 235.1,15.3 	"/>
	<g>
		<path d="M137.3,242.5c0,86.9-43.8,130.3-131.4,130.3H-76V115H5.9C93.5,115,137.3,157.5,137.3,242.5z M102.1,242.5
			c0-15.1-1.5-28.6-4.5-40.6c-3-12-8.2-22.1-15.5-30.5c-7.4-8.3-17.3-14.7-29.7-19.1c-12.4-4.4-28.1-6.6-47-6.6h-47.3v196.5H5.5
			c18.8,0,34.3-2.2,46.8-6.7c12.4-4.5,22.4-11,29.8-19.6s12.6-19,15.6-31.3C100.6,272.1,102.1,258.2,102.1,242.5z"/>
	</g>
</g>
</svg>
