<?xml version="1.0" encoding="utf-8"?>
<!-- Generator: Adobe Illustrator 18.0.0, SVG Export Plug-In . SVG Version: 6.00 Build 0)  -->
<!DOCTYPE svg PUBLIC "-//W3C//DTD SVG 1.1//EN" "http://www.w3.org/Graphics/SVG/1.1/DTD/svg11.dtd">
<svg version="1.1" id="Layer_1" xmlns="http://www.w3.org/2000/svg" xmlns:xlink="http://www.w3.org/1999/xlink" x="0px" y="0px"
	 viewBox="16.6 0 216.7 250" enable-background="new 16.6 0 216.7 250" xml:space="preserve">
<g>
	<g>
		<path d="M125,99.1c-41,0-74.1,11.7-74.1,25.9S84,151,125,151s74.1-11.7,74.1-25.9S165.6,99.1,125,99.1z M125,146.8
			c-38,0-68.8-9.8-68.8-21.8S87,103.2,125,103.2s68.8,9.8,68.8,21.8C193.8,137,163,146.8,125,146.8z"/>
		<path d="M102.4,137.8c20.3,35.3,47,58.3,59.4,51.1s5.6-41.7-14.7-77.1s-47-57.9-59.4-50.8S82.1,102.4,102.4,137.8z M143.8,114.1
			c19.2,33.1,25.9,64.7,15.8,70.7c-10.5,6-34.2-15.8-53.4-48.9S80.2,71.2,90.4,65.2C100.9,59.2,124.6,81.4,143.8,114.1z"/>
		<path d="M147.2,137.8c20.3-35.3,27.1-69.9,14.7-76.7c-12.4-7.1-38.7,15.8-59.4,51.1s-27.1,69.9-14.7,76.7
			C100.2,196.1,126.9,173.1,147.2,137.8z M106.2,114.1c19.2-33.1,42.9-54.9,53.4-48.9c10.5,6,3.4,37.6-15.8,70.7
			s-42.9,54.9-53.4,48.9C79.9,178.8,87,147.2,106.2,114.1z"/>
		<circle cx="125" cy="125" r="5.6"/>
	</g>
	<g>
		<g>
			<path d="M125.1,9.6L225,67l0.1,115.4L124.9,240L25,182.6L25,67.6L125.1,9.6 M125.2,0L16.6,62.6l0.1,125L124.8,250l108.5-62.6
				l-0.1-125L125.2,0L125.2,0z"/>
		</g>
	</g>
</g>
</svg>
