<?xml version="1.0" encoding="utf-8"?>
<!-- Generator: Adobe Illustrator 18.0.0, SVG Export Plug-In . SVG Version: 6.00 Build 0)  -->
<!DOCTYPE svg PUBLIC "-//W3C//DTD SVG 1.1//EN" "http://www.w3.org/Graphics/SVG/1.1/DTD/svg11.dtd">
<svg version="1.1" id="Layer_1" xmlns="http://www.w3.org/2000/svg" xmlns:xlink="http://www.w3.org/1999/xlink" x="0px" y="0px"
	 viewBox="0 0 52.1 60" enable-background="new 0 0 52.1 60" xml:space="preserve">
<g>
	<g>
		<path d="M26,2.3l24,13.7l0.1,27.7l-24,13.9l-24-13.7L2,16.3L26,2.3 M26,0L0,15.1l0.1,30l26,14.9l26-15.1l-0.1-30L26,0L26,0z"/>
	</g>
	<path d="M25.9,23.1C15,23.1,6.2,26.2,6.2,30s8.8,6.9,19.7,6.9s19.7-3.1,19.7-6.9S36.7,23.1,25.9,23.1z M25.9,35.8
		c-10.1,0-18.3-2.6-18.3-5.8c0-3.2,8.2-5.8,18.3-5.8s18.3,2.6,18.3,5.8C44.2,33.2,36,35.8,25.9,35.8z"/>
	<path d="M19.9,33.4c5.4,9.4,12.5,15.5,15.8,13.6c3.3-1.9,1.5-11.1-3.9-20.5S19.3,11.1,16,13S14.5,24,19.9,33.4z M30.9,27.1
		c5.1,8.8,6.9,17.2,4.2,18.8c-2.8,1.6-9.1-4.2-14.2-13s-6.9-17.2-4.2-18.8C19.5,12.5,25.8,18.4,30.9,27.1z"/>
	<path d="M31.8,33.4C37.2,24,39,14.8,35.7,13c-3.3-1.9-10.3,4.2-15.8,13.6S12.7,45.2,16,47C19.3,48.9,26.4,42.8,31.8,33.4z
		 M20.9,27.1c5.1-8.8,11.4-14.6,14.2-13c2.8,1.6,0.9,10-4.2,18.8s-11.4,14.6-14.2,13C13.9,44.3,15.8,35.9,20.9,27.1z"/>
	<circle cx="25.9" cy="30" r="1.5"/>
</g>
</svg>
